<?xml version="1.0" encoding="UTF-8"?>
<!DOCTYPE svg PUBLIC "-//W3C//DTD SVG 1.1//EN" "http://www.w3.org/Graphics/SVG/1.1/DTD/svg11.dtd">
<!-- Creator: CorelDRAW -->
<svg xmlns="http://www.w3.org/2000/svg" xml:space="preserve" width="14.8378mm" height="6.4128mm" version="1.1" style="shape-rendering:geometricPrecision; text-rendering:geometricPrecision; image-rendering:optimizeQuality; fill-rule:evenodd; clip-rule:evenodd"
viewBox="0 0 111.67 48.26"
 xmlns:xlink="http://www.w3.org/1999/xlink"
 xmlns:xodm="http://www.corel.com/coreldraw/odm/2003">
 <defs>
  <style type="text/css">
   <![CDATA[
    .fil0 {fill:#2445B3}
   ]]>
  </style>
 </defs>
 <g id="Camada_x0020_1">
  <metadata id="CorelCorpID_0Corel-Layer"/>
  <g id="_2629604795616">
   <g id="_1459219868448">
    <polygon class="fil0" points="59.81,9.29 59.75,3.83 57.5,0 52.49,0 50.18,3.83 50.24,9.35 37.5,9.4 43.48,17.74 50.24,17.74 50.24,48.26 59.81,48.26 59.81,17.74 66.68,17.74 72.82,9.23 "/>
    <polygon class="fil0" points="33.51,48.26 41.9,48.26 41.51,19.32 37.22,13.46 33.51,13.46 "/>
    <polygon class="fil0" points="76.64,48.26 68.31,48.26 68.76,19.26 72.99,13.46 76.64,13.46 "/>
    <polygon class="fil0" points="88.53,48.26 79.75,48.26 79.75,13.46 87.96,13.46 102.22,31.88 102.22,13.46 111.67,13.46 111.67,48.26 103.29,48.26 88.53,29.17 "/>
    <path class="fil0" d="M30.3 40.04c-6.08,9.35 -17.85,8.17 -30.3,8.17l0 -34.8c9.18,0 24.89,-1.52 30.3,7.94l0 18.7 0 0 0 -0.01zm-20.72 -18.08l4.62 0c11.26,0.05 12.67,16.78 0.12,17.68l-4.73 0 0 -17.68 0 0z"/>
   </g>
  </g>
 </g>
</svg>
