<?xml version="1.0" encoding="UTF-8"?>
<!DOCTYPE svg PUBLIC "-//W3C//DTD SVG 1.1//EN" "http://www.w3.org/Graphics/SVG/1.1/DTD/svg11.dtd">
<!-- Creator: CorelDRAW -->
<svg xmlns="http://www.w3.org/2000/svg" xml:space="preserve" width="14.8388mm" height="6.4129mm" version="1.1" style="shape-rendering:geometricPrecision; text-rendering:geometricPrecision; image-rendering:optimizeQuality; fill-rule:evenodd; clip-rule:evenodd"
viewBox="0 0 163.77 70.78"
 xmlns:xlink="http://www.w3.org/1999/xlink"
 xmlns:xodm="http://www.corel.com/coreldraw/odm/2003">
 <defs>
  <style type="text/css">
   <![CDATA[
    .fil0 {fill:#FEFEFE}
   ]]>
  </style>
 </defs>
 <g id="Camada_x0020_1">
  <metadata id="CorelCorpID_0Corel-Layer"/>
  <g id="_1459219868448">
   <polygon class="fil0" points="87.71,13.63 87.63,5.62 84.32,0 76.97,0 73.59,5.62 73.67,13.71 55,13.79 63.76,26.02 73.67,26.02 73.67,70.78 87.71,70.78 87.71,26.02 97.79,26.02 106.79,13.54 "/>
   <polygon class="fil0" points="49.14,70.78 61.45,70.78 60.87,28.33 54.59,19.74 49.14,19.74 "/>
   <polygon class="fil0" points="112.4,70.78 100.18,70.78 100.84,28.25 107.04,19.74 112.4,19.74 "/>
   <polygon class="fil0" points="129.83,70.78 116.95,70.78 116.95,19.74 129,19.74 149.9,46.75 149.9,19.74 163.77,19.74 163.77,70.78 151.47,70.78 129.83,42.78 "/>
   <path class="fil0" d="M44.43 58.72c-8.92,13.71 -26.18,11.98 -44.43,11.98l0 -51.04c13.46,0 36.5,-2.23 44.43,11.65l0 27.42 0 0zm-30.39 -26.51l6.77 0c16.52,0.08 18.58,24.61 0.17,25.93l-6.94 0 0 -25.93 0 0z"/>
  </g>
 </g>
</svg>
