<?xml version="1.0" encoding="UTF-8"?>
<!DOCTYPE svg PUBLIC "-//W3C//DTD SVG 1.1//EN" "http://www.w3.org/Graphics/SVG/1.1/DTD/svg11.dtd">
<!-- Creator: CorelDRAW -->
<svg xmlns="http://www.w3.org/2000/svg" xml:space="preserve" width="40.5292mm" height="40.5292mm" version="1.1" style="shape-rendering:geometricPrecision; text-rendering:geometricPrecision; image-rendering:optimizeQuality; fill-rule:evenodd; clip-rule:evenodd"
viewBox="0 0 277.33 277.33"
 xmlns:xlink="http://www.w3.org/1999/xlink"
 xmlns:xodm="http://www.corel.com/coreldraw/odm/2003">
 <defs>
  <style type="text/css">
   <![CDATA[
    .str0 {stroke:#60A5FA;stroke-width:3.62;stroke-miterlimit:22.9256}
    .fil0 {fill:none}
    .fil1 {fill:#60A5FA}
    .fil2 {fill:#60A5FA;fill-rule:nonzero}
   ]]>
  </style>
 </defs>
 <g id="Camada_x0020_1">
  <metadata id="CorelCorpID_0Corel-Layer"/>
  <rect class="fil0" x="1.81" y="1.81" width="273.71" height="273.71"/>
  <polygon class="fil1 str0" points="1.81,8.65 1.81,1.81 8.65,1.81 70.24,1.81 70.24,8.65 8.65,8.65 8.65,70.24 1.81,70.24 "/>
  <polygon class="fil1 str0" points="1.81,268.68 1.81,275.52 8.65,275.52 70.24,275.52 70.24,268.68 8.65,268.68 8.65,207.09 1.81,207.09 "/>
  <polygon class="fil1 str0" points="275.52,8.65 275.52,1.81 268.68,1.81 207.09,1.81 207.09,8.65 268.68,8.65 268.68,70.24 275.52,70.24 "/>
  <polygon class="fil1 str0" points="275.52,268.68 275.52,275.52 268.68,275.52 207.09,275.52 207.09,268.68 268.68,268.68 268.68,207.09 275.52,207.09 "/>
  <g id="_1845136609184">
   <path class="fil2" d="M207.1 61.68l-136.86 0c-4.54,0 -8.89,1.8 -12.09,5.01 -3.21,3.21 -5.01,7.56 -5.01,12.1l0 17.11c0.02,2.98 0.81,5.91 2.32,8.5 1.5,2.58 3.65,4.72 6.23,6.22l0 87.93c0,4.54 1.8,8.89 5.01,12.1 3.21,3.21 7.56,5.01 12.1,5.01l119.75 0c4.54,0 8.89,-1.8 12.1,-5.01 3.21,-3.21 5.01,-7.56 5.01,-12.1l0 -87.93c2.58,-1.49 4.73,-3.64 6.24,-6.22 1.5,-2.58 2.3,-5.51 2.31,-8.5l0 -17.11c0,-4.54 -1.8,-8.89 -5.01,-12.1 -3.21,-3.21 -7.56,-5.01 -12.09,-5.01zm-136.86 17.11l136.86 0 0 17.11 -136.86 0 0 -17.11zm8.55 119.75l0 -85.54 119.75 0 0 85.54 -119.75 0z"/>
   <polygon class="fil2" points="104.45,130.11 172.88,130.11 172.88,147.22 104.45,147.22 "/>
  </g>
 </g>
</svg>
