<?xml version="1.0" encoding="UTF-8"?>
<!DOCTYPE svg PUBLIC "-//W3C//DTD SVG 1.1//EN" "http://www.w3.org/Graphics/SVG/1.1/DTD/svg11.dtd">
<!-- Creator: CorelDRAW -->
<svg xmlns="http://www.w3.org/2000/svg" xml:space="preserve" width="40.5292mm" height="40.5292mm" version="1.1" style="shape-rendering:geometricPrecision; text-rendering:geometricPrecision; image-rendering:optimizeQuality; fill-rule:evenodd; clip-rule:evenodd"
viewBox="0 0 277.33 277.33"
 xmlns:xlink="http://www.w3.org/1999/xlink"
 xmlns:xodm="http://www.corel.com/coreldraw/odm/2003">
 <defs>
  <style type="text/css">
   <![CDATA[
    .str0 {stroke:#FEFEFE;stroke-width:3.62;stroke-miterlimit:22.9256}
    .fil0 {fill:none}
    .fil1 {fill:#FEFEFE}
    .fil2 {fill:#FEFEFE;fill-rule:nonzero}
   ]]>
  </style>
 </defs>
 <g id="Camada_x0020_1">
  <metadata id="CorelCorpID_0Corel-Layer"/>
  <rect class="fil0" x="1.81" y="1.81" width="273.71" height="273.71"/>
  <polygon class="fil1 str0" points="1.81,8.65 1.81,1.81 8.65,1.81 70.24,1.81 70.24,8.65 8.65,8.65 8.65,70.24 1.81,70.24 "/>
  <polygon class="fil1 str0" points="1.81,268.68 1.81,275.52 8.65,275.52 70.24,275.52 70.24,268.68 8.65,268.68 8.65,207.09 1.81,207.09 "/>
  <polygon class="fil1 str0" points="275.52,8.65 275.52,1.81 268.68,1.81 207.09,1.81 207.09,8.65 268.68,8.65 268.68,70.24 275.52,70.24 "/>
  <polygon class="fil1 str0" points="275.52,268.68 275.52,275.52 268.68,275.52 207.09,275.52 207.09,268.68 268.68,268.68 268.68,207.09 275.52,207.09 "/>
  <g id="_2959800006176">
   <path class="fil1" d="M53.13 217.62c0,-1.75 0.69,-3.42 1.93,-4.66 1.23,-1.23 2.9,-1.92 4.65,-1.92l157.91 0c1.75,0 3.42,0.7 4.66,1.92 1.23,1.24 1.92,2.91 1.92,4.66 0,1.75 -0.7,3.42 -1.92,4.66 -1.24,1.23 -2.91,1.92 -4.66,1.92l-157.91 0c-1.75,0 -3.42,-0.7 -4.65,-1.92 -1.24,-1.24 -1.93,-2.91 -1.93,-4.66z"/>
   <path class="fil2" d="M99.19 132.09l-26.31 0c-3.64,0 -6.58,2.94 -6.58,6.58l0 78.95c0,3.64 2.94,6.58 6.58,6.58l26.31 0c3.64,0 6.58,-2.94 6.58,-6.58l0 -78.95c0,-3.64 -2.94,-6.58 -6.58,-6.58z"/>
   <path class="fil2" d="M151.83 53.13l-26.32 0c-3.63,0 -6.58,2.94 -6.58,6.58l0 157.91c0,3.64 2.95,6.58 6.58,6.58l26.32 0c3.63,0 6.58,-2.94 6.58,-6.58l0 -157.91c0,-3.64 -2.95,-6.58 -6.58,-6.58z"/>
   <path class="fil2" d="M204.46 92.61l-26.31 0c-3.64,0 -6.58,2.94 -6.58,6.57l0 118.43c0,3.64 2.94,6.58 6.58,6.58l26.31 0c3.64,0 6.58,-2.94 6.58,-6.58l0 -118.43c0,-3.63 -2.94,-6.57 -6.58,-6.57z"/>
  </g>
 </g>
</svg>
