<?xml version="1.0" encoding="UTF-8"?>
<!DOCTYPE svg PUBLIC "-//W3C//DTD SVG 1.1//EN" "http://www.w3.org/Graphics/SVG/1.1/DTD/svg11.dtd">
<!-- Creator: CorelDRAW -->
<svg xmlns="http://www.w3.org/2000/svg" xml:space="preserve" width="40.5292mm" height="40.5292mm" version="1.1" style="shape-rendering:geometricPrecision; text-rendering:geometricPrecision; image-rendering:optimizeQuality; fill-rule:evenodd; clip-rule:evenodd"
viewBox="0 0 277.33 277.33"
 xmlns:xlink="http://www.w3.org/1999/xlink"
 xmlns:xodm="http://www.corel.com/coreldraw/odm/2003">
 <defs>
  <style type="text/css">
   <![CDATA[
    .str0 {stroke:#4EA4F6;stroke-width:3.62;stroke-miterlimit:22.9256}
    .fil0 {fill:none}
    .fil1 {fill:#4EA4F6}
    .fil2 {fill:#4EA4F6;fill-rule:nonzero}
   ]]>
  </style>
 </defs>
 <g id="Camada_x0020_1">
  <metadata id="CorelCorpID_0Corel-Layer"/>
  <rect class="fil0" x="1.81" y="1.81" width="273.71" height="273.71"/>
  <polygon class="fil1 str0" points="1.81,8.65 1.81,1.81 8.65,1.81 70.24,1.81 70.24,8.65 8.65,8.65 8.65,70.24 1.81,70.24 "/>
  <polygon class="fil1 str0" points="1.81,268.68 1.81,275.52 8.65,275.52 70.24,275.52 70.24,268.68 8.65,268.68 8.65,207.09 1.81,207.09 "/>
  <polygon class="fil1 str0" points="275.52,8.65 275.52,1.81 268.68,1.81 207.09,1.81 207.09,8.65 268.68,8.65 268.68,70.24 275.52,70.24 "/>
  <polygon class="fil1 str0" points="275.52,268.68 275.52,275.52 268.68,275.52 207.09,275.52 207.09,268.68 268.68,268.68 268.68,207.09 275.52,207.09 "/>
  <path class="fil2" d="M189.99 130.11c0,-8.2 -5.82,-15.06 -13.52,-16.71 3.08,-5.14 4.97,-11.09 4.97,-17.5 0,-18.87 -15.34,-34.22 -34.21,-34.22 -12.98,0 -24.13,7.33 -29.94,18 -5.81,-10.67 -16.96,-18 -29.94,-18 -18.87,0 -34.21,15.35 -34.21,34.22 0,7.71 2.67,14.77 6.99,20.49 -2.16,1.58 -3.91,3.65 -5.12,6.03 -1.21,2.38 -1.85,5.02 -1.86,7.69l0 68.43c0,9.43 7.67,17.11 17.1,17.11l102.64 0c9.44,0 17.11,-7.67 17.11,-17.11l0 -22.57 34.21 17.11 0 -59.88 -34.21 17.11 0 -20.21zm-42.77 -51.32c9.43,0 17.11,7.67 17.11,17.11 0,9.43 -7.67,17.1 -17.11,17.1 -9.44,0 -17.11,-7.67 -17.11,-17.1 0,-9.44 7.67,-17.11 17.11,-17.11zm-59.88 0c9.43,0 17.11,7.67 17.11,17.11 0,9.43 -7.67,17.1 -17.11,17.1 -9.43,0 -17.11,-7.67 -17.11,-17.1 0,-9.44 7.67,-17.11 17.11,-17.11zm-17.11 119.75l0 -68.43 102.64 0 0.02 68.43 -102.66 0z"/>
 </g>
</svg>
