<?xml version="1.0" encoding="UTF-8"?>
<!DOCTYPE svg PUBLIC "-//W3C//DTD SVG 1.1//EN" "http://www.w3.org/Graphics/SVG/1.1/DTD/svg11.dtd">
<!-- Creator: CorelDRAW -->
<svg xmlns="http://www.w3.org/2000/svg" xml:space="preserve" width="40.5292mm" height="40.5292mm" version="1.1" style="shape-rendering:geometricPrecision; text-rendering:geometricPrecision; image-rendering:optimizeQuality; fill-rule:evenodd; clip-rule:evenodd"
viewBox="0 0 277.33 277.33"
 xmlns:xlink="http://www.w3.org/1999/xlink"
 xmlns:xodm="http://www.corel.com/coreldraw/odm/2003">
 <defs>
  <style type="text/css">
   <![CDATA[
    .str0 {stroke:#FEFEFE;stroke-width:3.62;stroke-miterlimit:22.9256}
    .fil0 {fill:none}
    .fil1 {fill:#FEFEFE}
    .fil2 {fill:#FEFEFE;fill-rule:nonzero}
   ]]>
  </style>
 </defs>
 <g id="Camada_x0020_1">
  <metadata id="CorelCorpID_0Corel-Layer"/>
  <rect class="fil0" x="1.81" y="1.81" width="273.71" height="273.71"/>
  <polygon class="fil1 str0" points="1.81,8.65 1.81,1.81 8.65,1.81 70.24,1.81 70.24,8.65 8.65,8.65 8.65,70.24 1.81,70.24 "/>
  <polygon class="fil1 str0" points="1.81,268.68 1.81,275.52 8.65,275.52 70.24,275.52 70.24,268.68 8.65,268.68 8.65,207.09 1.81,207.09 "/>
  <polygon class="fil1 str0" points="275.52,8.65 275.52,1.81 268.68,1.81 207.09,1.81 207.09,8.65 268.68,8.65 268.68,70.24 275.52,70.24 "/>
  <polygon class="fil1 str0" points="275.52,268.68 275.52,275.52 268.68,275.52 207.09,275.52 207.09,268.68 268.68,268.68 268.68,207.09 275.52,207.09 "/>
  <path class="fil2" d="M61.69 147.22l8.55 0 0 59.88c0,9.43 7.67,17.11 17.11,17.11l102.64 0c9.43,0 17.11,-7.67 17.11,-17.11l0 -59.88 8.55 0c1.69,0 3.34,-0.5 4.75,-1.44 1.41,-0.94 2.5,-2.28 3.15,-3.84 0.65,-1.56 0.82,-3.28 0.49,-4.94 -0.33,-1.66 -1.14,-3.18 -2.34,-4.38l-76.98 -76.98c-1.6,-1.6 -3.78,-2.5 -6.05,-2.5 -2.27,0 -4.44,0.9 -6.05,2.5l-76.98 76.98c-1.2,1.2 -2.01,2.72 -2.34,4.38 -0.33,1.66 -0.16,3.38 0.49,4.94 0.65,1.56 1.74,2.9 3.15,3.84 1.41,0.94 3.06,1.44 4.75,1.44zm59.87 59.88l0 -42.77 34.22 0 0 42.77 -34.22 0zm17.11 -133.32l51.32 51.32 0.01 81.99 -17.12 0 0 -42.77c0,-9.43 -7.67,-17.11 -17.1,-17.11l-34.22 0c-9.43,0 -17.1,7.67 -17.1,17.11l0 42.77 -17.11 0 0 -81.99 51.32 -51.32z"/>
 </g>
</svg>
