<?xml version="1.0" encoding="UTF-8"?>
<!DOCTYPE svg PUBLIC "-//W3C//DTD SVG 1.1//EN" "http://www.w3.org/Graphics/SVG/1.1/DTD/svg11.dtd">
<!-- Creator: CorelDRAW -->
<svg xmlns="http://www.w3.org/2000/svg" xml:space="preserve" width="40.5292mm" height="40.5292mm" version="1.1" style="shape-rendering:geometricPrecision; text-rendering:geometricPrecision; image-rendering:optimizeQuality; fill-rule:evenodd; clip-rule:evenodd"
viewBox="0 0 277.33 277.33"
 xmlns:xlink="http://www.w3.org/1999/xlink"
 xmlns:xodm="http://www.corel.com/coreldraw/odm/2003">
 <defs>
  <style type="text/css">
   <![CDATA[
    .str0 {stroke:#FEFEFE;stroke-width:3.62;stroke-miterlimit:22.9256}
    .fil0 {fill:none}
    .fil1 {fill:#FEFEFE}
    .fil2 {fill:#FEFEFE;fill-rule:nonzero}
   ]]>
  </style>
 </defs>
 <g id="Camada_x0020_1">
  <metadata id="CorelCorpID_0Corel-Layer"/>
  <rect class="fil0" x="1.81" y="1.81" width="273.71" height="273.71"/>
  <polygon class="fil1 str0" points="1.81,8.65 1.81,1.81 8.65,1.81 70.24,1.81 70.24,8.65 8.65,8.65 8.65,70.24 1.81,70.24 "/>
  <polygon class="fil1 str0" points="1.81,268.68 1.81,275.52 8.65,275.52 70.24,275.52 70.24,268.68 8.65,268.68 8.65,207.09 1.81,207.09 "/>
  <polygon class="fil1 str0" points="275.52,8.65 275.52,1.81 268.68,1.81 207.09,1.81 207.09,8.65 268.68,8.65 268.68,70.24 275.52,70.24 "/>
  <polygon class="fil1 str0" points="275.52,268.68 275.52,275.52 268.68,275.52 207.09,275.52 207.09,268.68 268.68,268.68 268.68,207.09 275.52,207.09 "/>
  <path class="fil2" d="M54.54 207.53c1.59,2.39 4.27,3.84 7.14,3.84l128.3 0c3.42,0 6.52,-2.04 7.86,-5.19l25.66 -59.87c0.56,-1.3 0.79,-2.72 0.67,-4.13 -0.12,-1.41 -0.6,-2.77 -1.38,-3.95 -0.78,-1.18 -1.84,-2.15 -3.09,-2.82 -1.25,-0.67 -2.64,-1.02 -4.06,-1.01l-8.55 0 0 -34.21c0,-9.44 -7.67,-17.11 -17.11,-17.11l-52.18 0 -19.53 -15.28c-1.5,-1.18 -3.36,-1.82 -5.27,-1.82l-42.76 0c-9.43,0 -17.1,7.67 -17.1,17.11l0 119.74 0.06 0c-0.02,1.67 0.45,3.31 1.35,4.71zm129.8 -13.27l-109.68 0 18.33 -42.77 109.68 0 -18.33 42.77zm5.64 -94.08l0 34.21 -102.64 0c-3.42,0 -6.52,2.04 -7.86,5.18l-9.25 21.58 0 -60.97 119.74 0z"/>
 </g>
</svg>
